<svg xmlns="http://www.w3.org/2000/svg" viewBox="0 0 200 200" width="200" height="200">
  <defs>
    <linearGradient id="bg" x1="0%" y1="0%" x2="100%" y2="100%">
      <stop offset="0%" style="stop-color:#5c2223"/>
      <stop offset="100%" style="stop-color:#8b3a3a"/>
    </linearGradient>
  </defs>
  <circle cx="100" cy="100" r="100" fill="url(#bg)"/>
  <polygon points="45,75 30,20 75,55" fill="#d4a574" stroke="#c4956a" stroke-width="2"/>
  <polygon points="155,75 170,20 125,55" fill="#d4a574" stroke="#c4956a" stroke-width="2"/>
  <polygon points="50,70 38,30 72,55" fill="#f0c8a0"/>
  <polygon points="150,70 162,30 128,55" fill="#f0c8a0"/>
  <ellipse cx="100" cy="105" rx="60" ry="55" fill="#d4a574"/>
  <ellipse cx="100" cy="108" rx="55" ry="50" fill="#e8c9a0"/>
  <ellipse cx="78" cy="95" rx="10" ry="11" fill="#2d5016"/>
  <ellipse cx="122" cy="95" rx="10" ry="11" fill="#2d5016"/>
  <ellipse cx="80" cy="93" rx="4" ry="5" fill="#111"/>
  <ellipse cx="124" cy="93" rx="4" ry="5" fill="#111"/>
  <circle cx="82" cy="91" r="2.5" fill="white" opacity="0.8"/>
  <circle cx="126" cy="91" r="2.5" fill="white" opacity="0.8"/>
  <ellipse cx="100" cy="108" rx="5" ry="3.5" fill="#d4848a"/>
  <path d="M93,113 Q100,120 107,113" fill="none" stroke="#c4956a" stroke-width="1.5"/>
  <line x1="100" y1="111" x2="100" y2="115" stroke="#c4956a" stroke-width="1.5"/>
  <line x1="50" y1="100" x2="80" y2="105" stroke="#c4956a" stroke-width="1" opacity="0.6"/>
  <line x1="50" y1="108" x2="80" y2="108" stroke="#c4956a" stroke-width="1" opacity="0.6"/>
  <line x1="50" y1="116" x2="80" y2="111" stroke="#c4956a" stroke-width="1" opacity="0.6"/>
  <line x1="150" y1="100" x2="120" y2="105" stroke="#c4956a" stroke-width="1" opacity="0.6"/>
  <line x1="150" y1="108" x2="120" y2="108" stroke="#c4956a" stroke-width="1" opacity="0.6"/>
  <line x1="150" y1="116" x2="120" y2="111" stroke="#c4956a" stroke-width="1" opacity="0.6"/>
</svg>
